# xmcd CD database file
#
# Track frame offsets:
#	150
#	12795
#	24560
#	35965
#	51272
#	65465
#	77087
#	91322
#	104932
#	118497
#	130525
#	142262
#	153910
#	170572
#
# Disc length: 2519 seconds
#
# Revision: 2
# Processed by: cddbd v1.4PL0 Copyright (c) Steve Scherf et al.
# Submitted via: CDex 1.50Beta7
#
DISCID=c909d50e
DTITLE=The Spitfire Band - Virtual Reality
DYEAR=1996
DGENRE=Jazz
TTITLE0=Opus 1
TTITLE1=Taking a Chance on Love
TTITLE2=Two O'Clock Jump
TTITLE3=And The Angels Sing
TTITLE4=Back Bay Shuffle
TTITLE5=Elmer's Tune
TTITLE6=South Rampart Street Parade
TTITLE7=Saturday Night is the Loneliest Night of the Week
TTITLE8=Air Mail Special
TTITLE9=Frenesi
TTITLE10=Parade of the Wooden Soldiers
TTITLE11=Song of India
TTITLE12=Salutte to the Blizzard of '96
TTITLE13=No More Dancing
EXTD=YEAR: 1996
EXTT0=
EXTT1=
EXTT2=
EXTT3=
EXTT4=
EXTT5=
EXTT6=
EXTT7=
EXTT8=
EXTT9=
EXTT10=
EXTT11=
EXTT12=
EXTT13=
PLAYORDER=
